<?xml version="1.0" encoding="utf-8"?>
<!-- Svg Vector Icons : http://www.onlinewebfonts.com/icon -->
<!DOCTYPE svg PUBLIC "-//W3C//DTD SVG 1.1//EN" "http://www.w3.org/Graphics/SVG/1.1/DTD/svg11.dtd">
<svg version="1.1" xmlns="http://www.w3.org/2000/svg" xmlns:xlink="http://www.w3.org/1999/xlink" x="0px" y="0px" viewBox="0 0 1000 1000" enable-background="new 0 0 1000 1000" xml:space="preserve">
<metadata> Svg Vector Icons : http://www.onlinewebfonts.com/icon </metadata>
<g><g><g><g><path d="M500,598.1c54.1,0,98.1-44,98.1-98.1c0-21.4-7-41.1-18.5-57.2c-17.8-24.7-46.8-40.9-79.5-40.9c-32.7,0-61.7,16.2-79.6,40.9c-11.6,16.1-18.5,35.8-18.6,57.2C401.9,554.1,445.9,598.1,500,598.1z"/><polygon points="714.2,380 714.2,297.8 714.2,285.5 701.9,285.6 619.7,285.8 620,380.3 "/><path d="M500,10C229.8,10,10,229.8,10,500c0,270.2,219.8,490,490,490c270.2,0,490-219.8,490-490C990,229.8,770.2,10,500,10z M778.7,442.8V671c0,59.4-48.3,107.7-107.7,107.7H329c-59.4,0-107.7-48.3-107.7-107.7V442.8V329.1c0-59.4,48.3-107.7,107.7-107.7h341.9c59.4,0,107.7,48.3,107.7,107.7V442.8z"/><path d="M652.4,500c0,84-68.4,152.4-152.4,152.4c-84.1,0-152.4-68.4-152.4-152.4c0-20.2,4-39.5,11.2-57.2h-83.2V671c0,29.5,23.9,53.4,53.4,53.4h341.9c29.4,0,53.4-23.9,53.4-53.4V442.8h-83.2C648.3,460.5,652.4,479.8,652.4,500z"/></g></g></g><g></g><g></g><g></g><g></g><g></g><g></g><g></g><g></g><g></g><g></g><g></g><g></g><g></g><g></g><g></g></g>
</svg>